<svg width="100" height="100" viewBox="0 0 100 100" fill="none" xmlns="http://www.w3.org/2000/svg">
<path fill-rule="evenodd" clip-rule="evenodd" d="M70.5 79C84.031 79 95 68.031 95 54.5C95 40.969 84.031 30 70.5 30C56.969 30 46 40.969 46 54.5C46 68.031 56.969 79 70.5 79ZM67.7716 49.772C66.667 49.772 65.7716 50.6674 65.7716 51.772V58.0878C65.7716 59.1923 66.667 60.0878 67.7716 60.0878H74.0874C75.192 60.0878 76.0874 59.1923 76.0874 58.0878V51.772C76.0874 50.6674 75.192 49.772 74.0874 49.772H67.7716Z" fill="black"/>
<path fill-rule="evenodd" clip-rule="evenodd" d="M5 32C5 26.4772 9.47705 22 15 22H67C70.9205 22 74.314 24.256 75.9531 27.5406C74.1905 27.1861 72.367 27 70.5 27C63.458 27 57.0343 29.6469 52.1693 34H5V32ZM46.5361 41H5V67C5 72.5228 9.47705 77 15 77H54.6846C47.6172 72.0232 43 63.8008 43 54.5C43 49.5939 44.2847 44.9879 46.5361 41ZM19 52C17.8955 52 17 52.8954 17 54V57C17 58.1046 17.8955 59 19 59H33C34.1045 59 35 58.1046 35 57V54C35 52.8954 34.1045 52 33 52H19Z" fill="black"/>
</svg>
